# xmcd CD database file
#
# Track frame offsets:
#	150
#	13304
#	30612
#	43936
#	58696
#	74291
#	89808
#	105789
#	123540
#	139648
#	157267
#	170730
#
# Disc length: 2485 seconds
#
# Revision: 3
# Processed by: cddbd v1.5.2PL0 Copyright (c) Steve Scherf et al.
# Submitted via: CDex 1.70beta2
#
DISCID=ae09b30c
DTITLE=Midle of The Road - I grandi successi originali [CD2]
DYEAR=2000
DGENRE=Pop
TTITLE0=Yellow river
TTITLE1=On this land
TTITLE2=Queen dee
TTITLE3=Then you'll know what love is for
TTITLE4=Try a little unberstanding
TTITLE5=El condor pasa
TTITLE6=Rainin'n painin
TTITLE7=Give it time
TTITLE8=Places
TTITLE9=Do not cry (Dal film Dropoup)
TTITLE10=Super star
TTITLE11=Louise (My little ship)
EXTD=YEAR: 2000
EXTT0=
EXTT1=
EXTT2=
EXTT3=
EXTT4=
EXTT5=
EXTT6=
EXTT7=
EXTT8=
EXTT9=
EXTT10=
EXTT11=
PLAYORDER=
